<svg xmlns="http://www.w3.org/2000/svg" viewBox="0 0 72 72">
  <path d="M36,6A30,30,0,1,1,6,36,30,30,0,0,1,36,6m0-6A36,36,0,1,0,72,36,36,36,0,0,0,36,0Zm.7,30.92a5.74,5.74,0,0,0-.71,0,5.12,5.12,0,0,0-.69,10.2,5.74,5.74,0,0,0,.71,0,5.12,5.12,0,0,0,.69-10.2Zm-9.4,3.89a8.7,8.7,0,0,1,1.34-3.6c-2.65-1.28-11.4-5.32-15.32-4-2.54.86-4.39,5.12-4.39,10.24S11.3,45.87,14.05,47c4.73,1.89,12.42-4.11,14.71-6A8.66,8.66,0,0,1,27.3,34.81ZM36,27.22h0a9.67,9.67,0,0,1,1.2.08,8.7,8.7,0,0,1,3.6,1.34c1.28-2.65,5.32-11.4,4-15.32-.86-2.54-5.12-4.39-10.24-4.39S26.13,11.3,25,14.05c-1.89,4.73,4.11,12.42,6,14.71A8.68,8.68,0,0,1,36,27.22Zm7.25,3.83a8.76,8.76,0,0,1,.12,9.74c2.65,1.28,11.4,5.32,15.32,4,2.54-.86,4.39-5.12,4.39-10.24S60.7,26.13,58,25C53.22,23.13,45.53,29.13,43.24,31.05ZM36,44.78h0a9.67,9.67,0,0,1-1.2-.08,8.7,8.7,0,0,1-3.6-1.34c-1.28,2.65-5.32,11.4-4,15.32.86,2.54,5.12,4.39,10.24,4.39S45.87,60.7,47,58c1.89-4.73-4.11-12.42-6-14.71A8.68,8.68,0,0,1,36,44.78Z" fill="#1aa2dd"/>
</svg>
