<svg xmlns="http://www.w3.org/2000/svg" viewBox="0 0 160 106.14">
  <path d="M135,33.79V31H116.87V16.85a4.18,4.18,0,1,0-2.78,0V31H44.52V16.85a4.16,4.16,0,1,0-2.78,0V31H23.65v2.78H41.74v69.57H23.65v2.78H135v-2.78H116.87V33.79Zm-68.18,3,3-3H77.4L66.78,44.41Zm.07,11.52L81.41,33.79H89L66.78,56.05Zm25,52.12-3,3H81.22L91.83,92.74Zm0-11.64-14.57,14.6H69.65L91.83,81.22Zm0-12.16-25,25V94.06l25-25Zm0-11.58-25,25V82.41l25-25Zm0-11.57-25,25v-7.6l25-25Zm0-11.58-25,25.05V59.33l25-25Zm57.35,47.95L153.7,93l-5,2.31.15-1.47a26.39,26.39,0,0,1-15.55-9.81,25.65,25.65,0,0,1,3.27-34.69,25.24,25.24,0,0,1,17.18-6.43,24.9,24.9,0,0,0-16.69,7A24.56,24.56,0,0,0,129.4,66,24,24,0,0,0,149,91.25ZM26.75,83.88a26.38,26.38,0,0,1-15.61,9.81l.13,1.47-5-2.31,4.53-3.21L10.88,91a24,24,0,0,0,14.25-8.35,24.1,24.1,0,0,0,5.39-16.79A24.63,24.63,0,0,0,23,49.7a25.06,25.06,0,0,0-16.7-7,25.24,25.24,0,0,1,17.2,6.43,25.49,25.49,0,0,1,8.34,16.57,25.77,25.77,0,0,1-5.13,18.14ZM3.08,72.29A5.71,5.71,0,0,1,.83,70.1a6.11,6.11,0,0,1,0-6.16,5.63,5.63,0,0,1,2.25-2.16A6.77,6.77,0,0,1,6.29,61a6.82,6.82,0,0,1,3.23.78,5.73,5.73,0,0,1,2.26,2.16,6.23,6.23,0,0,1,0,6.18,5.75,5.75,0,0,1-2.26,2.17,6.82,6.82,0,0,1-3.23.78A6.77,6.77,0,0,1,3.08,72.29Zm5.27-1.67a3.8,3.8,0,0,0,1.39-1.48,4.35,4.35,0,0,0,0-4.17,3.68,3.68,0,0,0-1.39-1.46A4.21,4.21,0,0,0,6.24,63a4.19,4.19,0,0,0-2.06.47,3.75,3.75,0,0,0-1.39,1.46,4.37,4.37,0,0,0,0,4.18,3.86,3.86,0,0,0,1.39,1.53,4.16,4.16,0,0,0,2.1.51A4.26,4.26,0,0,0,8.35,70.62ZM19.48,73v1.18H13.91v-.9l3-2.6a4.7,4.7,0,0,0,.71-.77,1.07,1.07,0,0,0,.19-.6.76.76,0,0,0-.36-.64,1.87,1.87,0,0,0-1.06-.25,3,3,0,0,0-1,.18,1.79,1.79,0,0,0-.7.54l-1.05-.73a2.82,2.82,0,0,1,1.16-.92,4.24,4.24,0,0,1,1.79-.39,3.19,3.19,0,0,1,2,.57,1.79,1.79,0,0,1,.71,1.43,2,2,0,0,1-.27,1,4.79,4.79,0,0,1-1,1.15l-1.89,1.67ZM151.65,61.23V72.75h-2.78V67.18H143.3v5.57h-2.78V61.62h2.78v4.17h5.57V61.16ZM160,72.75v1.39h-5.57v-.46L157.22,71a4.3,4.3,0,0,0,.71-.77,1.09,1.09,0,0,0,.2-.58.77.77,0,0,0-.37-.66,1.89,1.89,0,0,0-1.07-.25,2.8,2.8,0,0,0-1,.18,1.69,1.69,0,0,0-.71.56l-1-.75a2.86,2.86,0,0,1,1.17-.92,4.46,4.46,0,0,1,1.73-.32,3.33,3.33,0,0,1,2.08.57,1.77,1.77,0,0,1,.75,1.48,2,2,0,0,1-.27,1,4.61,4.61,0,0,1-1,1.14l-1.9,1.06ZM108.39,12.33l-28.34,11-3.53,1.38V7.36l-26.3,5L78.56,1.38,82.09,0V17.32Z" fill="#1aa2dd"/>
</svg>
