<svg xmlns="http://www.w3.org/2000/svg" viewBox="0 0 64 66.93">
  <path d="M58.63,33.46,63.8,22.68A2,2,0,0,0,62,19.81H58.55V2a2,2,0,0,0-4,0V19.81H51.09a2,2,0,0,0-1.8,2.87l3.62,7.54H36.73V22.1a2,2,0,0,0-2-2H20.36V2a2,2,0,0,0-4,0V20.1H2a2,2,0,0,0-2,2V44.83a2,2,0,0,0,2,2H16.36v18.1a2,2,0,0,0,4,0V46.83H34.73a2,2,0,0,0,2-2V36.71H52.91l-3.62,7.54a2,2,0,0,0,1.8,2.86h3.46V64.93a2,2,0,0,0,4,0V47.11H62a2,2,0,0,0,1.8-2.86Zm.19-9.65-2.27,4.74-2.28-4.74Zm-26.09,19H4V24.1H32.73Zm4-9.12v-.49H54.35l.12.24-.12.25Zm17.54,9.4,2.28-4.73,2.27,4.73Z" fill="#1aa2dd"/>
</svg>
